<svg viewBox="0 0 200 200" xmlns="http://www.w3.org/2000/svg">
  <defs>
    <linearGradient id="bgGrad" x1="0%" y1="0%" x2="100%" y2="100%">
      <stop offset="0%" stop-color="#1e40af"/>
      <stop offset="100%" stop-color="#1e3a8a"/>
    </linearGradient>
    <linearGradient id="flameGrad" x1="0%" y1="100%" x2="0%" y2="0%">
      <stop offset="0%" stop-color="#f59e0b"/>
      <stop offset="60%" stop-color="#fbbf24"/>
      <stop offset="100%" stop-color="#fde68a"/>
    </linearGradient>
  </defs>
  <circle cx="100" cy="100" r="99" fill="#1e3a8a"/>
  <circle cx="100" cy="100" r="97" fill="none" stroke="#f59e0b" stroke-width="4"/>
  <circle cx="100" cy="100" r="92" fill="url(#bgGrad)"/>
  <circle cx="100" cy="100" r="85" fill="none" stroke="#f59e0b" stroke-width="1" stroke-dasharray="5,4" opacity="0.5"/>
  <path d="M100,32 C93,44 88,58 93,70 C95.5,76 100,80 100,80 C100,80 104.5,76 107,70 C112,58 107,44 100,32Z" fill="url(#flameGrad)"/>
  <path d="M100,46 C97,54 95,62 98,69 C99,72 100,74 100,74 C100,74 101,72 102,69 C105,62 103,54 100,46Z" fill="white" opacity="0.6"/>
  <polygon points="100,28 101.8,33.5 107.5,33.5 103,37 104.8,42.5 100,39 95.2,42.5 97,37 92.5,33.5 98.2,33.5" fill="#fde68a" opacity="0.9"/>
  <g transform="translate(100, 128)">
    <path d="M-4,-28 Q-50,-22 -47,32 L-4,32 Z" fill="#dbeafe" opacity="0.95"/>
    <path d="M4,-28 Q50,-22 47,32 L4,32 Z" fill="#eff6ff" opacity="0.95"/>
    <rect x="-5" y="-28" width="10" height="60" rx="3" fill="#f59e0b"/>
    <line x1="-38" y1="-10" x2="-8" y2="-13" stroke="#1e3a8a" stroke-width="1.5" opacity="0.25"/>
    <line x1="-36" y1="0" x2="-8" y2="-3" stroke="#1e3a8a" stroke-width="1.5" opacity="0.25"/>
    <line x1="-34" y1="10" x2="-8" y2="7" stroke="#1e3a8a" stroke-width="1.5" opacity="0.25"/>
    <line x1="-32" y1="20" x2="-8" y2="17" stroke="#1e3a8a" stroke-width="1.5" opacity="0.25"/>
    <line x1="38" y1="-10" x2="8" y2="-13" stroke="#1e3a8a" stroke-width="1.5" opacity="0.25"/>
    <line x1="36" y1="0" x2="8" y2="-3" stroke="#1e3a8a" stroke-width="1.5" opacity="0.25"/>
    <line x1="34" y1="10" x2="8" y2="7" stroke="#1e3a8a" stroke-width="1.5" opacity="0.25"/>
    <line x1="32" y1="20" x2="8" y2="17" stroke="#1e3a8a" stroke-width="1.5" opacity="0.25"/>
  </g>
  <text x="100" y="90" text-anchor="middle" dominant-baseline="middle" font-family="Georgia,'Times New Roman',serif" font-size="20" font-weight="bold" fill="#f59e0b" letter-spacing="3">SRPSS</text>
  <line x1="18" y1="90" x2="60" y2="90" stroke="#f59e0b" stroke-width="1.5" opacity="0.55"/>
  <line x1="140" y1="90" x2="182" y2="90" stroke="#f59e0b" stroke-width="1.5" opacity="0.55"/>
  <text x="100" y="164" text-anchor="middle" font-family="Arial,Helvetica,sans-serif" font-size="8" fill="#fde68a" letter-spacing="4" font-weight="bold">EST. 1986</text>
  <text x="100" y="173" text-anchor="middle" font-family="Arial,Helvetica,sans-serif" font-size="7.5" fill="#bfdbfe" letter-spacing="0.3">SHRI RAMA PRASAD SINGH</text>
  <text x="100" y="183" text-anchor="middle" font-family="Arial,Helvetica,sans-serif" font-size="7.5" fill="#bfdbfe" letter-spacing="0.3">SHIKSHA SANSTHAN</text>
  <text x="62" y="165" font-size="7" fill="#f59e0b" text-anchor="middle">&#x2726;</text>
  <text x="138" y="165" font-size="7" fill="#f59e0b" text-anchor="middle">&#x2726;</text>
</svg>
